<svg width="40" height="40" viewBox="0 0 40 40" fill="none" xmlns="http://www.w3.org/2000/svg">
<path fill-rule="evenodd" clip-rule="evenodd" d="M19.5294 39.0243C30.3153 39.0243 39.0588 30.2884 39.0588 19.5121C39.0588 8.7359 30.3153 0 19.5294 0C8.7436 0 0 8.7359 0 19.5121C0 30.2884 8.7436 39.0243 19.5294 39.0243ZM22.5437 15.0756C24.2084 13.4123 24.2084 10.7156 22.5437 9.05235C20.879 7.38906 18.1799 7.38906 16.5151 9.05235C14.8504 10.7156 14.8504 13.4123 16.5151 15.0756L19.5294 18.0872L22.5437 15.0756ZM23.9699 22.5238C25.6347 24.1871 28.3337 24.1871 29.9985 22.5238C31.6632 20.8605 31.6632 18.1638 29.9985 16.5005C28.3337 14.8373 25.6347 14.8373 23.9699 16.5005L20.9556 19.5122L23.9699 22.5238ZM22.5437 29.972C24.2084 28.3087 24.2084 25.612 22.5437 23.9487L19.5294 20.9371L16.5151 23.9487C14.8504 25.612 14.8504 28.3087 16.5151 29.972C18.1799 31.6353 20.879 31.6353 22.5437 29.972ZM9.06031 22.5238C7.39558 20.8605 7.39558 18.1638 9.06031 16.5005C10.7251 14.8373 13.4242 14.8373 15.089 16.5005L18.1032 19.5122L15.089 22.5238C13.4242 24.1871 10.7251 24.1871 9.06031 22.5238Z" fill="#080517"/>
</svg>
